<?xml version="1.0" standalone="no"?>
<!DOCTYPE svg PUBLIC "-//W3C//DTD SVG 20010904//EN"
 "http://www.w3.org/TR/2001/REC-SVG-20010904/DTD/svg10.dtd">
<svg version="1.0" xmlns="http://www.w3.org/2000/svg"
 width="700.000000pt" height="700.000000pt" viewBox="0 0 700.000000 700.000000"
 preserveAspectRatio="xMidYMid meet">
<metadata>
Created by potrace 1.11, written by Peter Selinger 2001-2013
</metadata>
<g transform="translate(0.000000,700.000000) scale(0.100000,-0.100000)"
fill="#000000" stroke="none">
<path d="M38 5542 l-38 -3 0 -2040 0 -2039 48 0 c62 -1 6831 -1 6900 0 l52 0
0 2043 0 2042 -3463 0 c-1904 0 -3479 -1 -3499 -3z m6377 -2042 l0 -1455
-2915 0 -2915 0 -1 1450 c-1 798 1 1453 2 1457 2 3 1315 5 2916 5 l2913 -2 0
-1455z"/>
<path d="M877 4656 c-2 -6 -3 -137 -3 -291 l1 -280 438 -1 437 0 0 291 0 292
-435 0 c-303 0 -435 -4 -438 -11z"/>
<path d="M2044 4376 l1 -291 290 0 290 0 0 288 c0 158 -2 288 -5 289 -3 1
-134 2 -291 3 l-287 2 2 -291z"/>
<path d="M2918 4656 c-2 -6 -3 -137 -3 -291 l1 -280 290 0 289 0 3 291 2 291
-289 0 c-199 0 -291 -4 -293 -11z"/>
<path d="M3792 4376 l3 -291 287 -1 c196 0 288 3 291 10 2 6 3 137 3 291 l-1
280 -293 1 -292 1 2 -291z"/>
<path d="M4672 4656 c-6 -8 -8 -534 -3 -567 1 -3 132 -5 291 -5 l290 0 0 291
0 292 -285 0 c-193 0 -288 -4 -293 -11z"/>
<path d="M5541 4375 l1 -291 291 0 292 1 0 288 c1 281 0 288 -20 292 -11 2
-142 3 -292 3 l-272 -2 0 -291z"/>
<path d="M875 3500 l0 -290 578 -2 c319 -2 581 0 584 5 2 4 5 134 5 290 l0
282 -583 3 -584 2 0 -290z"/>
<path d="M2333 3500 l0 -290 292 0 291 0 0 290 0 290 -291 0 -292 0 0 -290z"/>
<path d="M3210 3500 l0 -290 290 0 290 0 0 290 0 290 -290 0 -290 0 0 -290z"/>
<path d="M4084 3500 l0 -290 291 0 292 0 0 290 0 290 -292 0 -291 0 0 -290z"/>
<path d="M4959 3773 c0 -25 0 -524 0 -545 1 -17 36 -18 584 -18 l582 0 0 290
0 290 -582 0 c-548 0 -583 -1 -584 -17z"/>
<path d="M2043 2626 l2 -291 1455 0 1455 0 2 270 c2 149 1 279 -2 291 l-4 20
-1455 0 -1454 0 1 -290z"/>
</g>
</svg>
